<svg version="1.0" xmlns="http://www.w3.org/2000/svg" viewBox="0 0 900 897"><path fill="#8beba8" d="m436 102-8 2c0 2-7 8-8 8l-6 3-5 3-3 2-7 6c-14 11-28 29-35 45-6 12-6 12-3 14l2 3 2-3 3-5c0-3 10-22 12-25 2-2 2-2 3-1l-1 4-2 3-5 12a76 76 0 0 0-5 19l-2 7-3 10a254 254 0 0 0-9 45c0 4 0 5 3 6 2 1 2 1 4-2l2-8a337 337 0 0 1 27-92c1 1 0 7-1 9a313 313 0 0 0-20 79l-3 12-3 10-2 27v36l3 40c1 4-3 5-3 2-4-13-5-47-4-75l-1-28c-1-2-3-3-4-1l-3 11-1 41a425 425 0 0 0 1 37l-3-1c-2-3-4-15-4-25s-1-13-6-13h-3v9l2 18 1 15c0 6 2 17 5 29l1 8 2 7 1 7 2 4c2 2 2 2 9 1l14-2 15-1a747 747 0 0 1 28-3l-1-10c-4-22-7-66-6-107a586 586 0 0 1 20-152 110 110 0 0 1 17-33c7-9 6-10-9-8zm-21 41-4 7c-2 0-2-2-1-5 0-2 1-3 3-3l2 1zm-16 3-4 7c-3 3-3 1-1-4 2-4 4-5 5-3zm9 12-3 6c-2-1-1-7 0-7l3 1zm-7 18c0 4-1 5-3 4-2 0-3-2 0-6 2-3 3-2 3 2zm-6 18c0 8-1 10-4 11-2 0-2 0-2-4s3-13 5-13l1 6zm-6 24-1 6-2 8-2 8-2 6c-1 7-2 6-2-1l6-31c1-2 1-2 3-1v5zm12-3c2 2 0 7-2 7l-1-3c0-5 2-7 4-4zm-6 32c0 5-1 7-3 5-1-1 0-7 1-9s2 0 2 4zm-5 17v4c-1 4-4 4-4 1 0-5 2-7 4-5zm-14 15c-1 32 0 53 3 77 0 4 0 4-2 4s-3-1-3-5l-2-14a321 321 0 0 1 3-77l1 15zm13 7c-1 3-3 4-3 1s1-4 2-4l1 3zm0 15v10c-1 6-1 8-2 7s-2-18-1-19c1-2 3 0 3 2zm0 33-1 6c-3-1-4-12 0-12l1 6zm1 18 2 4c0 2 0 2-2 2s-4-4-3-7c1-1 2-1 3 1zm-37 18c0 6-2 7-4 2-2-3-2-4-1-5 3-3 5-2 5 3zm42-1c0 3 0 5-2 5s-4-4-4-6c1-2 5-1 6 1zm-15 6c1 3 0 4-1 4-2 0-3-1-3-4l1-5c2-1 3 0 3 5zm-11 16 1 8c-2 1-4-3-5-8-1-10 2-11 4 0zm-13 0 2 8 1 4c-1 1-1 1-3-1-2-1-5-12-5-16l2-1c2 1 3 1 3 6zm41 0c0 4-1 7-3 5l-2-9c1-3 4-1 5 4zm-14 5-1 4c-2 0-3-6-2-8s3 0 3 4zm86-295 4 7a74 74 0 0 1 13 18 218 218 0 0 1 22 62l3 15a305 305 0 0 1 6 55l1 38a604 604 0 0 1-9 114l13 2c11 1 15 1 35 5 13 2 14 1 15-3l3-11a183 183 0 0 0 7-34 344 344 0 0 0-6-155l-1-5-1-4-4-9a169 169 0 0 0-73-85c-4-2-6-4-4-5s4-1 12 3a152 152 0 0 1 64 67l2 2 1 3 2 3 1 3 3 7a87 87 0 0 1 6 17 164 164 0 0 1 8 29 265 265 0 0 1 2 110l-1 7-1 9-3 15-8 28c-3 10-3 12 1 12l7 1a268 268 0 0 0 30 8l7 1c3 1 7-9 15-36 9-32 14-74 11-97l-2-17c-3-26-15-61-29-87-10-18-30-40-47-53-9-6-12-10-9-10 5 0 27 16 39 29a217 217 0 0 1 50 101l4 16c2 16 2 60 0 77a310 310 0 0 1-19 72l-3 6 3 2 4 2 13 4 14 6h3l7-14a278 278 0 0 0 25-81 201 201 0 0 0-14-98 616 616 0 0 0-17-34l-18-27a319 319 0 0 0-60-55l-25-13a319 319 0 0 0-102-23zm44 58c0 3 0 3-2 3-2-1-3-4-1-7 0-2 2 0 3 4zm62 2c-1 2-1 2-3 1s-3-3-3-6c1-1 1-1 4 1l2 4zm-45 7c0 4-2 4-4 1v-3c2-1 4-1 4 2zm52 3c2 1 3 4 1 5-2 0-5-4-5-5 1-2 2-2 4 0zm-64 3c1 3 0 6-1 6l-4-7c0-2 4-1 5 2zm15 9-1 3c-1 0-3-4-2-5 1-2 3 0 3 2zm57 3v5c-2 0-4-4-4-6 1-2 3-1 4 1zm-69 3c2 2 1 6 0 6h-2c-1-2-2-6-1-7 0-1 3-1 3 1zm15 11c0 5-2 5-3 1-1-3-1-5 2-5l1 4zm62 2c2 2 1 6 0 6l-3-2c-3-4 0-7 3-4zm-73 4c1 4 0 7-2 6s-4-7-2-9c1-2 3-1 4 3zm26 3c1 3 1 5-1 5-1 0-3-4-2-6 0-3 2-2 3 1zm-12 7v4c-2 1-2 1-3-1-1-3 0-6 1-6s2 1 2 3zm-11 9c2 11 2 13-1 13-2 0-3-2-3-8l-1-8c-1-4 0-8 2-8 1 0 2 3 3 11zm29 5c0 4 0 4-2 4l-3-2v-8c1-2 4 2 5 6zm-14 6 3 22c1 17 1 19-2 18-2-1-2-3-2-11l-1-14c-2-10-3-20-2-21 1-3 3 0 4 6zm63-1c1 4 1 5-2 4l-2-4c0-4 3-4 4 0zm-36 2c1 2 0 3-1 4h-2v-6c1-1 3 0 3 2zm-39 9 1 6c0 3-1 3-2 3-2 0-3-1-3-3-2-6 1-11 4-6zm27 0c2 3 3 14 1 14h-2l-3-15c2-2 3-1 4 1zm50 6c2 3 1 6-1 5-1-1-2-2-2-5 0-4 1-4 3 0zm-36 3c2 3 1 6-1 6s-2-1-2-4c0-4 2-6 3-2zm-39 5a1064 1064 0 0 1-3 73c-2 0-2-1-2-33v-36c0-4 3-7 5-4zm79 12c0 3 0 3-2 3s-2-3-2-6c1-2 4-1 4 3zm-51 0c1 4 0 7-2 8-2 0-2-1-2-4l1-5c1-2 2-1 3 1zm13 0c1 3-1 5-3 4v-5c1-2 3-1 3 1zm-27 12a150 150 0 0 1 0 33c0 1-1 2-3 2h-2l1-18 1-18c0-2 3-1 3 1zm83 3c2 1 1 4-1 4s-3-2-2-4c0-2 1-2 3 0zm-55 3c0 4-1 5-3 4v-7c2-2 3-1 3 3zm38 3-1 8c-3 1-3-1-3-7 0-7 1-8 3-8l1 7zm-52 0 1 8c0 4-1 4-3 5-2 0-2 0-2-8l1-8c1-2 2 0 3 3zm113 7v4h-3l-1-5c1-3 3-2 4 1zm-43 6-1 2c-1 0-2-3-1-4 0-2 2 0 2 2zm56 0v4c-2 2-4 1-4-3s3-4 4-1zm-112 4-1 3c-2 0-3-4-2-6 2-3 3-2 3 3zm37 3c0 3-2 6-3 5v-7c1-2 3 0 3 2zm-51 4c1 1 1 5-1 8-2 2-3 0-3-5 0-4 1-5 4-3zm114 2-1 5c-1 2-3 0-3-4 0-3 0-4 2-4l2 3zm12 7c0 2-1 3-2 3-2 0-2 0-2-3l1-3c1-2 3 0 3 3zm-139 3c0 2-2 11-4 11s-3-8-2-11h6zm63 3c0 3-1 4-3 4-1 0-2 0-2-2 0-3 2-6 4-6l1 4zm63 6c0 3-1 5-2 5-3 0-4-1-3-5 3-6 5-5 5 0zm12 5c0 3-3 4-3 2v-4c1-4 3-3 3 2zm-154 7c0 9-1 13-4 13l-1-9c1-10 2-14 4-14 1 1 2 4 1 10zm95-6-2 5c-1 2-2 0-2-3 0-4 1-6 3-6l1 4zm70 2c0 2 0 2-1 1l-1-2c2-2 2-1 2 1zm-87 4c0 3-2 7-4 5-2 0-1-7 1-8 2-3 4-2 3 3zm-48 0c-1 4-2 6-4 5-2-2 0-8 3-8l1 3zm-17 3c2 0 2 1 1 4-1 9-5 10-4 1 0-6 1-6 3-5zm126 3c0 4-2 5-3 2-1-2 0-6 2-6l1 3zm14 2c0 2-2 5-4 4v-6c1-2 4 0 4 2zm-61 5c0 3-2 6-3 6v-7c1-2 3-1 3 1zm-63 4c1 2 0 6-2 6-1 0-2-1-2-3 0-5 2-7 4-3zm47 1c0 4-1 6-3 6s-2-2 0-6 3-4 3 0zm-78 9-2 8-1 8c0 5-1 5-3 6-2 0-3-2 0-8l2-11 1-9c1-3 1-3 3-2v8zm139-6c0 3-1 5-3 5-2-1-2-2-1-4 1-4 1-4 3-4l1 3zm13 2c0 3-2 7-3 7-2 0-2-3-2-6 1-2 5-3 5-1zm-137 6c0 3-3 9-4 9-2-1-1-9 0-11 2-2 3-1 4 2zm75 4c0 4-1 6-3 3v-5c1-3 4-2 3 2zm-15 2-5 14-2 6c0 4-1 7-3 7-3 0-2-6 0-7l2-6 2-8c1-7 6-12 6-6zm60 1c1 1-1 5-2 5-2 0-2-3-1-5s3-3 3 0zm-108 0c1 1 0 8-2 9v-8c0-2 2-3 2-1zm120 6-1 3c-2 0-3-5-1-6 1-2 2 0 2 3zm-136 0c0 4 0 7-2 8s-3 0-3-2c0-4 5-9 5-6zm76 5c0 2-2 5-4 5v-6c1-3 3-2 4 1zm45 5c0 2-3 5-5 4v-5c2-2 5-1 5 1zm10 7c-1 2-3 3-4 1l2-3 3-2c1 1 1 2-1 4zm-60 1c0 3-1 5-3 5l-1-3c0-2 0-3 2-3l2 1zm44 8c0 2-4 8-5 7-2-1-1-4 1-7s4-3 4 0zm12 4c0 2-3 7-5 7-1 0-1-3 1-6 2-2 4-3 4-1z"/><path fill="#8beba8" d="M409 105a289 289 0 0 0-49 15 134 134 0 0 0-34 16l-8 5a229 229 0 0 0-79 292c7 13 7 13 13 11a173 173 0 0 1 25-10c5-2 5-2 1-12a547 547 0 0 1-16-60 233 233 0 0 1 15-142 238 238 0 0 1 46-69l7-6c8-7 14-12 17-13 3 0 3 0 3 2s-5 7-16 17a164 164 0 0 0-29 33c-4 6-9 18-10 23l-4 7c-4 3-4 6 0 6 2 0 3 0 3 2l-2 9-2 8-3 14c-6 23-6 31-7 65 0 25 1 33 2 36 2 6 1 9-1 9-3 0-4-5-4-10v-5c-2-1-3-27-2-37 0-6 0-7-2-10-2-4-3-4-5 0a222 222 0 0 0 15 114l3 8c2 6 2 6 5 7l8-1 8-2 7-1 22-6c5 0 5 0 5-4l-1-7a251 251 0 0 1-13-71v-63l2-14a290 290 0 0 1 14-65l3-8 10-21c13-24 34-46 54-56l12-5 3-2c-1-1-8-1-16 1zm-41 28c0 1-2 4-4 4-3 0-3-2-2-5 1-2 2-2 3-1l3 2zm-12 13c0 1-3 5-5 5v-5h4zm-13 17c-1 2-4 3-4 0l2-3c1-2 1-2 2-1v4zm-17 12-1 2a154 154 0 0 0-17 40l-5 19c-2 7-2 7-4 6s-2-2-2-4l6-21c1-2 1-2-2-3-4-2-4-3 0-7l6-9 13-22c3-4 4-5 6-4v3zm-33-2c0 2-3 7-5 7-2-1-2-5 0-7h5zm42 11-5 9c-2-1-1-7 1-9h4zm-51 2c0 3-12 21-15 24-2 1-3 3-3 8v5h-4c-5 0-6 2-10 9-5 9-10 25-13 38l-3 13-3 19a6753 6753 0 0 0-2 33c2 4 1 7-2 8-2 0-2 0-2-3-2-14-2-31 2-47l1-10a124 124 0 0 1 9-32l11-25c4-7 7-11 10-11 2-1 3-2 3-4 0-5 16-26 19-26l2 1zm42 17c0 3-3 8-4 8-3 0-2-6 0-8 2-3 4-3 4 0zm-6 20c0 4-3 9-5 8-3-2 0-11 4-11l1 3zm-57 13-6 14-3 10c0 8-3 13-7 10-1-1-1-2 1-8l3-9 5-15c2-3 5-4 7-2zm52 5-1 8c-1 3-3 10-3 16-2 12-3 15-6 12-1-1-1-3 2-19 2-13 4-19 6-19l2 2zm-16 13-1 9a274 274 0 0 0-2 95l2 11c1 5 1 9-1 10-1 0-4-7-4-12l-1-8-2-12c-3-41-3-42 0-68 2-23 4-29 8-29l1 4zm-49 24-1 7c-1 5-2 7-4 7-3 0-3-3-1-9 1-5 2-6 3-6l3 1zm58 14-1 11c-2 4-2 8-1 19l2 17c0 3 0 3-2 3-3-1-4-5-4-30l1-25 3-1c2 0 2 0 2 6zm-62 12c0 4-2 7-4 6v-10c2-3 4-1 4 4zm-1 17c0 6-1 9-3 9s-2-1-2-6c0-7 1-8 3-8 1 0 2 2 2 5zm0 21v7c-3 5-6-6-4-11s3-3 4 4zm65 13-1 6-3-1v-11c1-2 3 2 4 6zm-77 1v6c-1 1-1 1-3-1s-3-7-1-8c2-2 4 0 4 3zm14 5v11c-1 1-4-3-5-8 0-5 0-5 2-5l3 2zm64 12-1 5c-2 0-4-8-3-10 2-2 4 0 4 5zm-76-3v7c-2 1-5-2-5-5s2-4 5-2zm50 5a493 493 0 0 1 9 38c-1 1-4-1-4-3l-1-5-8-30c-1-4 0-6 2-6l2 6zm-33 9c1 5 1 8-2 7-2-1-4-10-3-11 1-2 3 0 5 4zm48 1 2 7 1 8c4 10 5 14 3 14s-4-4-4-8l-1-6c-2-4-5-16-4-17 0-2 1-1 3 2zm15 2c1 5 1 7-1 7s-3-2-3-7c0-7 2-6 4 0zm-76 2c1 4-1 7-3 4-2-1-3-5-1-6 1-2 3 0 4 2zm17 11v7c-2 0-5-6-5-8 1-2 3-1 5 1zm-12 5c3 5 0 8-3 5-3-2-3-7 0-7l3 2zm75-1v7c-1 1-4-4-4-7 0-1 2-2 4 0zm-58 13c3 2 3 7 1 8l-3-4c-3-6-1-8 2-4zm-10 8c2 5-1 7-4 1-1-4-1-4 1-4l3 3zm206-321c-2 0-7 7-9 10a197 197 0 0 0-12 26c-6 14-10 32-10 57v10l2 1c3 0 3 0 3-6a558 558 0 0 1 10-54v9c-4 43-7 113-7 155v34h-3l-3-1v-26l-1-29h-8c-3 3 0 100 4 119v2l13-1 38-1h25l2-7 2-16a732 732 0 0 0 3-144 420 420 0 0 0-18-94c-3-11-14-31-22-39-5-6-7-7-10-5zm-5 35-1 7c-1-1-2-3-2-8l1-7c2 0 2 1 2 8zm12 1c1 3 0 5-2 5l-1-3c0-3 2-4 3-2zm13 14 1 4c0 2-1 2-2 2-3-1-4-3-3-6h4zm-25 16-1 34c-2 19-3 23-5 19-2-3 1-62 3-68l2-1 1 16zm12-15c1 2 0 7-2 7-1 0-2-3-1-6 0-2 3-3 3-1zm0 17c2 3 0 10-2 9-1-1-2-6-1-9 1-2 2-3 3 0zm15 0v6c-1 2-1 2-3 0s-3-5-1-7 3-1 4 1zm0 21c0 5-2 7-3 5v-8c1-2 2 0 3 3zm-14-2c0 3-1 7-3 7-1 0-3-4-2-7l2-1 3 1zm-1 17c2 3 1 9-2 9-2 0-3-8-1-10 2-1 3-1 3 1zm15 4c0 5-1 6-3 5v-8c2-2 3-1 3 3zm-14 16c0 3-1 7-3 7-2-1-4-6-2-7 2-3 4-2 5 0zm14 2c1 3 0 5-2 5-1 0-2-4-1-7s3-2 3 2zm-30 0a2630 2630 0 0 1-2 130l-3-2-1-64 2-63c0-2 4-3 4-1zm31 12c0 3-1 8-3 8-1 0-3-3-3-6 0-4 5-6 6-2zm-15 4c0 2-1 8-3 9l-3-9c1-2 5-3 6 0zm14 15c0 4-1 5-3 4v-8c2-2 3 0 3 4zm-15 18-1 18-2 1c-2-1-2-3-2-10l1-11v-5c-1-5 0-10 3-10l1 17zm15-1c-1 5-3 6-4 2 0-4 1-6 2-6 2 0 2 1 2 4zm0 19c0 2-1 3-2 3-2 0-2-4-1-7 2-3 3-1 3 4zm-15 12c0 6-1 8-4 6-2-1-2-3-1-8 0-3 1-3 2-3 2 0 3 1 3 5zm15 5c0 3 0 4-2 4s-2-1-2-3c0-4 1-5 3-5l1 4zm-15 15c0 5-1 7-3 7-1-1-2-2-2-5 0-5 1-6 3-6l2 4zm15 3c0 4-1 4-2 4-3 0-4-4-2-7s4-2 4 3zm-16 15c0 6-1 8-3 5-2-1-2-5-1-8 2-3 4-2 4 3zm16 8c0 10-1 12-4 11l-1-9 1-10 2-1c2 0 2 1 2 9zm-45 10a362 362 0 0 0 0 23c-2 1-3-1-4-10l-1-14c-1-6 0-11 3-11 1 0 2 1 2 12zm30 1-2 4c-2 2-5-1-4-5 1-3 5-3 6 1zm-15 12c1 19 1 18-1 19-2 0-2-1-2-7l-1-13c0-6 0-8 2-8 1 0 2 4 2 9zm29 1c0 2 0 3-2 3-1 0-2 0-2-2s2-4 3-4l1 3zm-15 3c1 3 0 7-2 7-2-1-3-6-1-8s3-1 3 1zm15 12c0 2-1 3-2 3-2 0-2-1-2-3 0-1 0-2 2-2l2 2zm-43 1c1 1-1 4-2 4s-2-3-1-4h3z"/><path fill="#8beba8" d="M355 196c-2 3-3 11-2 13s6 0 7-3v-11c-2-2-3-1-5 1zm70 23c-2 2-1 4 1 4 3 1 6-1 4-3-1-2-3-2-5-1zm-76 3c-2 1-2 2-2 5 1 4 1 5 3 5 5 0 7-7 3-10-1-2-2-2-4 0zm-67 10c-2 3-2 7-1 7 2 1 5-1 6-4 0-2-1-5-3-5l-2 2zm141 5v5l3 3c4 1 7-8 3-10-3-2-4-1-6 2zm-77 6-2 6c0 3 1 4 3 4h3v-6c0-6-2-7-4-4zm-71 10c-2 2-4 13-5 22v20c2 2 4-3 5-11l2-10 1-8 1-6c2-2 2-6 2-9 0-2-5-1-6 2zm65 13c-2 2-2 2-1 5 3 5 8 3 8-3-1-5-4-6-7-2zm82-1-1 7c-1 6 0 8 4 8 2-1 3-1 3-6s0-6-2-9c-3-2-3-2-4 0zm-86 37-1 5c1 2 1 2 4 2 2 1 3 0 4-2l1-5h-8zm103 116-14 1a855 855 0 0 0 23 139l6 31 2 7h5c5 0 5 0 6-3l2-8a651 651 0 0 1 10-50 1486 1486 0 0 1 13-77l2-12 1-7 2-11c1-7 1-9-1-10h-57zm40 12c0 4-1 6-3 4s-2-4 0-6c2-3 3-2 3 2zm-41 6c1 8 0 10-2 9s-2-3-2-9c0-7 1-10 2-8l2 8zm12-5c2 5 1 10-1 10s-2-1-3-7c0-6 0-7 2-7l2 4zm14 0-1 4c-1 2-3-1-3-5 0-2 0-3 2-3s2 1 2 4zm0 18-1 4c-2 0-3-5-2-8 2-3 3-1 3 4zm15-2c0 3-1 4-3 3v-6c2-1 3 0 3 3zm-27 7c0 3 0 3-2 3s-3-1-3-3c0-3 0-3 2-3s3 1 3 3zm-12 3c0 6-2 7-3 2-1-4 0-7 2-7l1 5zm25 10c1 6 0 10-2 11-2 0-2-1-2-6l1-7c1-2 2-1 3 2zm-13 4-1 4c-2 0-3-3-2-6s3-2 3 2zm1 16c0 3-3 4-4 1 0-3 1-5 3-4l1 3zm-49-67-14 1-37 4c-2 2-1 8 3 15l5 13 4 12 3 8 3 8 3 6a592 592 0 0 0 57 103c2 4 5 6 10 6l6-1c1-1 1-3-6-29a308 308 0 0 1-8-44 376 376 0 0 1-11-60l-1-12-3-19c-1-10-2-13-4-13l-10 1zm-5 13c2 4 2 7 0 7s-4-3-4-7 2-4 4 0zm-15 1 2 7 1 6c2 4 3 11 1 11l-4-8-3-10c-3-8 0-13 3-6zm-14 0c1 2 2 7 1 9s-2 1-4-4c-2-4 0-8 3-5zm5 17c2 3 3 8 1 8s-5-4-5-8 2-4 4 0zm28-1c1 2 1 7-1 8l-4-8h5zm-21 19v5c-2 2-5-2-5-5 0-4 3-4 5 1zm13 1c1 3-2 5-3 2v-5l3 3zm6 15-1 2-2-2c0-3 2-2 3 0zm-12 2v4c-2 1-2 1-4-2s-2-5 1-5l3 3zm8 18v4c-1 2-5-3-5-6 0-4 3-3 5 2zm109-85-2 12-2 18-2 13-2 12-2 15a402 402 0 0 1-6 33 420 420 0 0 1-10 48l-4 14-2 10 6 1c6 0 7-1 8-3l3-4 8-12 7-13 3-5a279 279 0 0 1 13-23l21-44 3-7 3-8 3-7 3-8 7-16 1-5 4-11c2-3-1-5-7-5l-12-2-39-5c-2 0-3 1-3 2zm15 11c1 2-1 5-3 5l-2-4c1-2 4-2 4-1zm15 8-1 2c-1 1-1 0-1-1l1-3 1 2zm-18 10c1 1 0 7-2 7h-3c-2 0-2-1-1-3l1-4h5zm-3 20c0 4-1 6-3 4-2-1-2-4-1-6 2-2 4-1 4 2z"/><path fill="#8beba8" d="m332 429-8 1-7 1-19 5c-8 1-8 3 1 18a265 265 0 0 1 15 27l3 4a483 483 0 0 0 100 111l7-1c4 0 4 0-14-25a238 238 0 0 1-17-27 508 508 0 0 1-30-61l-3-8-2-7-5-13a141 141 0 0 0-6-18l-2-5c-1-4-2-4-5-4l-9 2zm-4 12 1 3 2 5c2 4 0 6-3 4-1-2-4-8-4-11 0-2 2-3 4-1zm-19 4c3 1 5 7 3 8l-2 1c-1 0-5-7-4-9h3zm10 16 2 5c0 3 0 3-2 3s-5-5-5-8h5zm17 1 2 3 2 4c1 2 2 8 0 8s-8-14-8-16c1-1 2-1 4 1zm-6 18 1 4c-1 1-5 0-5-1l-1-3c-1-3 3-3 5 0zm244-49-2 6a218 218 0 0 1-15 41l-1 5-6 11a466 466 0 0 1-51 96c-2 1-3 6-2 6l7 1c6 0 6 0 9-4a778 778 0 0 1 34-37l28-34a242 242 0 0 0 28-43l6-11a561 561 0 0 0 12-22c3-6 3-9-3-9l-8-2a219 219 0 0 0-25-7c-8-2-9-1-11 3zm13 12-1 6-2 4-2 2v-7l3-5c0-4 2-4 2 0zm-6 15c0 4-3 8-5 6-1-1-1-2 1-4 3-5 4-5 4-2zm-6 18c0 3-1 4-3 3v-5c2-1 3 0 3 2z"/><path fill="#8beba8" d="M631 441a138 138 0 0 0-9 19l-5 10-5 9-6 10a478 478 0 0 1-58 76l-16 17-11 13-4 6h-21l-56 1c-38 0-37 0-39-6-1-6-8-14-28-32-23-21-39-40-57-68l-11-17-4-7a385 385 0 0 1-16-30c-2-2-17 2-23 5l-7 3c-6 3-8 4-6 7l5 7 5 10 8 14 11 19a1635 1635 0 0 0 107 157v6c1 3 2 3 6 3 5 0 5 0 8 4l7 11c6 10 6 13-1 26-7 12-7 13-13 13-4 0-5 0-8 3-2 3-2 4-2 8 1 4 1 5 7 9 3 2 3 3 3 8 0 8 3 23 5 28l6 7 4 4h76l37-1 5-5c5-5 7-9 8-26l2-13 3-3c5-3 7-8 5-13-2-4-5-6-11-6-4 0-5 0-8-4l-6-11-5-9-1-5 9-16 3-5c0-2 4-4 8-4s4 0 6-4l1-7c-1-2 0-3 10-14l20-28 10-15 11-15a2089 2089 0 0 0 25-41l8-12 3-5 3-5 3-4 3-6 3-4 4-8 8-14 6-10a284 284 0 0 0 12-23c1-3 1-4-1-5l-4-2-3-1-4-2-8-3a83 83 0 0 0-14-5l-3 1zm-353 17-1 1-1-4c1-1 2 1 2 3zm10 15-2 2c-3 0-5-5-5-8 1-1 1-1 4 2l3 4zm356 12-3 6-3 6-3 4a164 164 0 0 0-12 20 649 649 0 0 1-26 44l-8 12a317 317 0 0 0-13 20l-7 9-32 44v-6l5-14 2-7 5-15 5-14 5-13 4-12c0-3 5-10 6-10a903 903 0 0 0 75-75zm-352 16c11 13 34 36 49 48 15 13 15 13 20 26a1015 1015 0 0 0 27 71v6c-1 0-29-36-36-47l-7-10-24-35-8-12a488 488 0 0 1-11-16l-11-19-4-6-9-15c-6-12-2-9 14 8zm261 71-2 7a272 272 0 0 0-7 22 193 193 0 0 0-5 13l-5 13-1 4-1 5-4 10c-1 5-2 6-6 8-3 2-3 3-4 6l1 7c1 2 1 3-3 10l-9 11c-1 0-4-3-4-5l-4-9-4-9 4-3 4-3v-11c-1-11 0-12 3-18 3-7 11-16 16-19 2-2 2-3 3-8v-5l10-10a468 468 0 0 0 18-16zm-179 3 13 13 12 11-1 5c0 4 0 4 6 9s10 10 15 20c3 7 3 8 2 16v9l4 3 3 4-2 3-5 10c-4 7-7 11-8 8l-5-8-5-7 2-5c2-4 2-4 0-7-1-3-3-5-6-6-3-2-4-3-4-5l-2-7a228 228 0 0 1-10-27l-3-8-2-5-4-11-2-5-1-7v-4l3 1zm105 45a769 769 0 0 0-5 22c-3 0-1-27 2-31h3v9zm-51 1c6 11 8 20 7 21-3 2-4 1-5-4-4-9-8-19-10-20l-1-4c0-3 0-3 2-3s4 3 7 10zm13-9c2 2 4 7 6 19 3 8 2 11 0 11s-3 0-3-4l-6-19c-3-7-1-10 3-7zm20 2a122 122 0 0 1 0 29h-3l-3-31c1-2 5-1 6 2zm38-1c1 0 0 4-2 7-3 6-5 14-6 19l-3 3-2-2 8-24c1-3 4-5 5-3zm-2 40c0 4-2 4-33 4s-37-1-36-3a324 324 0 0 1 69-1zm-54 16a274 274 0 0 1-7 50c-1 0-6-5-8-9l-5-7-1-6c0-8 15-34 19-33 1 0 2 2 2 5zm28-4c1 0 2 4 2 9l2 11 3 18 2 18c1 5 0 6-7 6l-5-1-2-6-1-30 1-25h5zm17 4a155 155 0 0 1 12 27l-1 7-2 2-3 5-3 6-2 2c-2 0-3-2-4-12l-2-13-1-11a1453 1453 0 0 0-1-17c3-2 4-1 7 4zm-31-2 1 31v28l-7 1-8-1c-1-1-1 0 6-39 1-7 2-14 1-16-1-5 5-9 7-4zm50 42 8 17c-1 1-19 2-20 0-1 0 0-3 2-5l3-6 5-7 2 1zm-84 7 5 8c1 2 0 2-9 3l-10-1c-1-1 4-13 6-16 2-2 3-1 8 6zm112 21-1 3c-1 2-10 2-71 2-68 0-70 0-71-2-1-1-2-2-1-3l72-1 72 1zm-114 15c0 2 0 2-9 2-10 0-11 0-11-2 0-3 1-3 11-3 8 0 9 1 9 3zm28-1-1 3h-17c-2-2-2-2 0-3 1-2 3-2 9-2 7 0 9 1 9 2zm19-1c2 2 0 4-5 4l-6-1c-1-2 3-4 6-4l5 1zm16 2-3 1-3-1 3-1 3 1zm27 0-2 2c-2 0-3 0-3-2l3-1 2 1zm-102 11c0 1 0 2-3 2-3 1-5 1-5-2s1-3 5-3c2 0 3 1 3 3zm26-2c2 1 0 4-3 5-5 0-14 0-15-2l-1-2c1-2 3-2 9-2l10 1zm37 0c1 3-24 6-27 4-2-1-2-2-2-3 1-2 3-2 15-2l14 1zm24 1-2 1-2-1 2-1 2 1zm-74 11c0 2-1 3-8 3h-9l-1-4 9-1c8 0 9 1 9 2zm27 0c0 2-1 2-9 3-8 0-11-1-10-4l10-1c8 0 9 1 9 2zm18-1c1 2-1 4-4 4-4 0-6-2-5-4l5-1 4 1zm18 1c0 2-4 2-7 2v-2h7zm24 0c0 1-2 2-3 1l1-2 2 1zm-78 9c4 0 5 1 5 2 0 2-1 2-7 3-11 0-14-1-10-4 1-2 5-2 12-1zm28 0c7 0 7 0 7 2s-1 2-10 3c-9 0-12-1-11-4 1-2 4-2 14-1zm36 1-1 2c-2 0-3-1-2-2 1-2 3-1 3 0z"/><path fill="#8beba8" d="M367 697c-1 2-1 2 1 4s2 2 4 1 3-5 1-7-5-1-6 1zm183-1c-2 2-2 2 0 4 2 3 3 4 5 1 2-2 2-3 0-5-2-3-3-2-5 0zm14-1-1 3c0 2 1 2 3 2l3-1c1-3-3-6-5-4z"/></svg>
