<svg version="1.0" xmlns="http://www.w3.org/2000/svg" viewBox="0 0 900 903"><path fill="#8beba8" d="M415 46c-1 1-6 2-20 2-9 1-20 3-28 6l-7 1-9 2a370 370 0 0 0-81 34l-9 7c-9 5-28 21-36 29a261 261 0 0 0-44 59l-2 5-4 8-5 11-3 10-2 3-1 3-1 4-2 4-1 7c-3 9-4 17-5 26l-2 16-1 19v13l-3 2c-4 3-6 7-5 10h6c5 0 5 0 13 5 10 6 14 8 19 8l6 3h3l-1-8-2-28a208 208 0 0 1 12-84l14-35A264 264 0 0 1 337 74l6-2 27-9c2 2 1 4-6 7a55 55 0 0 0-9 6l-24 18c-10 8-28 27-33 34a164 164 0 0 0-21 32 255 255 0 0 0-18 44l-3 9a295 295 0 0 0-10 79c0 21 2 54 4 58 2 5-12 14-24 14l-14-2c-9-2-9-3-15-8s-7-6-9-5c-6 2-20-4-29-13-5-4-6-5-9-5-4 0-4 0-4 2s1 5 3 7c2 3 3 5 3 9l1 7 3 8a140 140 0 0 0 8 28l2 5 1 4 1 4 4 8c0 4 2 7 3 8l2 4 4 11 4 9 3 5 3 5a390 390 0 0 0 44 78c3 3 3 3 2 6-1 5-1 7 1 8s3 1 6-2c4-5 7-5 7-2 0 2-1 3-4 5-6 3-6 5-1 7l8 8a115 115 0 0 0 9 15l3 4 3 5 3 5 7 9 6 7 2 3 3 4 3 4 4 5 10 12a362 362 0 0 0 58 60c0 2 1 5 3 7l2 6-2 4-3 8-2 6-2 7-2 8c0 4-4 6-12 6-7 0-8 0-10 3-3 3-5 9-5 12l6 12 7 4 5 3v11l3 40c2 8 9 16 18 18a2040 2040 0 0 0 156 0c8-4 11-10 12-24l1-14 2-14c1-11 3-18 6-18l6 3 11 5c4 2 4 2 4 6 0 5 0 5 5 9 3 3 6 4 12 5l13 2 11 2c7 1 10 1 11-1 0-1-5-6-10-8l-7-4c-2-2-2-3 0-5l2-2 11-5c8-4 9-5 9-6 0-2-1-2-6-2h-18l-29 1c-6 1-15-2-15-5l1-4 2-5c1-6 0-13-4-17-3-2-4-2-10-2s-7-1-9-2a128 128 0 0 1-12-33c-2-3-2-10-1-10l3-6c0-3 2-5 3-6a294 294 0 0 0 61-62l10-12 6-7 3-5c2-1 4-5 5-7l4-5 4-6 5-7 3-5 2-3 4-5c3-6 7-11 10-11 3-1 6-5 4-6l-3-2c-2-2-3-2-2-4 2-2 3-1 5 2l3 2 2-2c2-2 2-4 2-7-1-4-1-5 4-12l5-8 3-4 3-5 3-4a395 395 0 0 0 24-45 242 242 0 0 0 19-39l5-12c4-10 8-24 12-41l5-19 4-10c7-10 7-18 0-22-3-2-3-3-3-12l-1-12-2-9a225 225 0 0 0-29-102l-6-9A249 249 0 0 0 529 54c-6-3-34-7-45-7a5345 5345 0 0 1-69-1zm4 14-7 8a177 177 0 0 0-51 73 318 318 0 0 0-25 107c-1 3-3 48-2 54l1 16c1 14 2 25 4 29 0 3-2 8-7 12-10 9-24 12-41 9-10-2-17-6-25-13l-6-7-1-17a372 372 0 0 1 15-130l5-15 2-5 11-24 6-9a201 201 0 0 1 83-75 143 143 0 0 1 33-13h5zm74 6c9 3 13 4 20 8a214 214 0 0 1 26 14l13 9 9 8c10 8 27 27 33 36a320 320 0 0 1 34 72l2 9 2 7 2 8 4 30c2 15 2 61 0 71-1 8 0 11 3 10l9 3 15 6c7 1 7 1 13-1l15-6c5-3 10-6 13-6a216 216 0 0 0 31-16c3-3 6-4 8-2s1 4-1 5c-2 0-5 3-9 6-5 5-22 14-28 15l-15 7-11 6h-10c-8 0-10-1-18-4l-10-5c-3-2-7-1-10 2-1 1-3 3-5 3l-6 3c-7 5-13 6-24 6-15 0-31-3-32-6l-5-7-4-5v-16l2-23a352 352 0 0 0-8-112l-5-18-1-4-5-16-7-17-3-8a231 231 0 0 0-48-69c-5-5-7-7-6-8s4 0 17 5zm-52-1 2 36a103646 103646 0 0 1 1 236v12l-4 5c-4 5-6 7-14 11-9 4-11 5-24 7s-37-6-46-15c-8-8-8-11-9-53a372 372 0 0 1 9-104 102 102 0 0 1 6-24l10-31c11-24 17-34 27-48 14-18 28-30 37-33l3-1 2 3zm119 14h-1l-1-2c0-1 2 0 2 2zm-93 2h-2v-2h1v2zm99 7 13 5 5 1c3 0 9 4 8 5s-2 1-18-5l-10-3c-4 0-6-2-6-4l2-1 6 2zm48 4-1 1c-2 0-2-1-1-2l2 1zm-156 1 2 3c-1 1-7-2-7-4s2-1 5 1zm18 1c0 2-2 3-3 2-1 0 0-3 2-3l1 1zm-8 5c2 0 8 8 7 9l-11-8-2-2h2l4 1zm26 2-3 5-5 9-5 8-6 9c0 2 13 16 15 16l9-9 9-9c3 0 1 5-7 14-6 7-6 8-1 14l5 5 1 1 5 5 6-5c3-4 6-5 6-3l-3 5-4 6-8 9-7 9c0 3 8 12 12 13 2 0 3-1 9-6l8-7c3 0 0 6-7 12l-4 5 4 8 4 5 2 4c3 3 6 4 7 1 1-2 4-3 5-2v3l-3 5-11 12-9 10 11 16c3 3 5 2 13-8l5-4c2 0 1 3-5 11-7 8-7 8-2 15l2 4c0 2-3 1-5-2l-4-2c-3 0-15 13-15 16 0 2 1 5 3 7l3 4c0 2 5 7 6 7 2 0 5-3 9-7 7-7 9-8 9-4l-6 8-6 8 3 5 2 5-6-3-3-1c-2 0-4 1-6 5l-7 8c-4 3-5 4-2 8 2 2 0 4-3 2-4-3-5-2-11 4l-8 6c-2 0-1-4 5-10l6-8c0-1-1-4-3-5l-6-7c-1-3-4-5-4-5l-10 8c-7 7-8 8-7 10l2 4 1 3 1 1c1 0 2 3 1 4 0 1-5-3-8-8-2-2-6-3-8-1-1 2-6 3-6 1l2-2c5-2 6-6 2-11-3-4-8-16-8-18s3-6 8-12l8-11-3-5c-3-4-13-20-13-22l9-11c8-7 9-9 9-12l-1-3c-1 0-10-12-12-17-2-4-3-5-1-5l2 1s1 2 3 2l3 4 3 6 3 5 2 3c2 2 2 2 4 1 4-3 9-7 10-11l2-3-5-6-7-7-4-4c0-2-3-5-6-8-4-5-7-6-8-4l-3 1c-3 1-3 0-1-5l2-4 2-3c4-1 12-11 12-15l-9-10-9-10 6-7c5-5 6-7 6-9 0-3-1-4-6-9l-6-7c0-3 2-2 7 3l7 5c2 0 10-11 10-13l2-4 6-6c3-5 7-7 7-4zm89 2c8 2 21 7 23 9l2 2-3-1-13-3-12-4-4-2c-1-2 0-3 2-3l5 2zm-323 7-2 2c-1 0-2-3 0-4 1-1 2 0 2 2zm206 0c1 2 0 2-2 2l-1-2h3zm134 8a71 71 0 0 1 25 9c2 1 2 1 1 2h-4l-10-4a460 460 0 0 1-21-9h2l8 2zm-356 8-3 1v-1l2-1v1zm367 6 3 1 7 3 8 3 6 3 8 3 1 1c0 2-2 2-6 1l-13-5-11-5-10-4-2-3c1-1 6 0 9 2zm9 15 12 4 4 1 6 2 12 5c0 2-1 2-4 1l-5-2-4-1-5-1-5-2c-3 0-14-3-17-6-6-3-2-4 6-1zm-396 1c1 2-2 4-3 2-1-1-1-3 1-3l2 1zm-9 11c1 1 0 2-1 2l-2-4c1-2 3-1 3 2zm413 1a114 114 0 0 1 22 6c6 1 13 5 13 7h-5l-11-4-15-5-7-1c-4 0-6-1-5-4h3l5 1zm6 12 6 1 6 2c4 1 10 3 12 5l4 1c2 1 3 1 2 2s-6 0-16-3l-17-5c-3-1-5-3-4-4l2-1 5 2zm58 2h-2c-1-1 0-3 1-3l1 3zm-55 9 6 3 10 2a91 91 0 0 1 19 8c2 1 2 1 1 2h-3l-5-2-10-3-8-3c-10-2-15-4-15-6s0-2 5-1zm59 2c2 2 0 2-1 2-1-1-2-1-1-2h3zm-501 4c2 2 3 4 1 4s-5-5-4-5c1-1 1-1 3 1zm450 9 8 3 5 1 6 2 7 3a102 102 0 0 1 9 4c1 0 2 1 1 2 0 1-3 1-4-1l-4-1-4-2-4-1-4-2-5-1-5-2-7-1c-3 0-8-3-8-5s3-1 9 1zm-454 1 1 3c-1 1-4-1-4-3h3zm-3 12c1 2 0 3-1 3-2 0-5-5-4-6 0-1 4 0 5 3zm461-1 12 4 9 3 6 3 6 3 2 2c0 2-2 1-18-5l-9-3-7-2-5-1-4-2c-2-4-1-4 8-2zm-175 9-2 1c-2-1-2-1-1-3h3v2zm-291 2c2 2 2 3 1 4s-1 1-3-1c-4-5-2-7 2-3zm474 3a87 87 0 0 1 12 5l5 1 7 4c3 1 5 3 5 4s-2 1-7-2l-16-6c-11-2-17-4-18-5l-1-2c1-2 2-2 4-1l9 2zm-476 7c0 2-2 1-3-1s-1-2 1-1l2 2zm478 6 11 4 8 3c6 2 10 4 11 6s-1 2-4 1c-7-3-13-6-27-10l-11-5c0-2 6-1 12 1zm-482 2c2 3 3 5 1 5s-5-3-5-5c0-3 1-3 4 0zm483 10c13 4 26 10 25 12h-6l-7-3-8-3-10-4c-6-2-8-4-3-4l9 2zm-485 5c4 3 5 5 2 5-2 0-9-8-9-11l7 6zm361-1h-2v-2h1l1 2zm181 1c-1 2-2 1-1-1h1v1zm-541 17-1 2c-1 0-8-8-8-10l-1-1-1-2 6 4 5 7zm483-10 7 3 6 3 4 1 3 1 3 2 3 2h-8a234 234 0 0 0-27-13c0-2 4-1 9 1zm61 8c0 1-2 2-3 1l1-2 2 1zm-61 4a135 135 0 0 1 16 7c2 1 2 1 1 2h-3l-5-2-5-1-7-4c-8-4-5-6 3-2zm-492 4c9 10 10 12 6 12-2 0-11-12-11-15 0-1 3 0 5 3zm499 10 4 2c5 2 11 8 9 8l-2-1-3-1-3-1-3-2-3-1-3-2-3-2c0-2 4-1 7 0zm23 2c-1 2-3 0-2-2h2v2zm-521 8c5 5 7 10 4 10-1 0-11-12-11-14s1-1 7 4zm494 1 7 5c0 1-2 1-7-1-4-2-6-4-5-6h2l3 2zm54-2c0 1-1 2-2 1l1-2 1 1zm-31 4c0 1-3 1-4-1l2-1 2 1zm35 8c0 1-2 2-3 1l1-2 2 1zm-58 9 3 4c-1 1-5-2-7-5-1-3 1-3 4 1zm-486 9-1 2-2-2 1-2 2 2zm499 0c1 1 0 2-1 1l-1-1h2zm-10 6-1 1c-1 1-4 0-3-1h4zm-9 6c0 1-2 2-3 1l1-2 2 1zm20 0-1 2-1-1 1-2 1 1zm-123 13c2 2 1 6-4 9l-7 4c-10 7-17 10-26 13a71 71 0 0 1-41-1c-3 0-18-7-24-12-4-3-5-4-5-7l1-4c1-1 4 1 7 3 6 5 14 9 19 10l6 3 21 4a128 128 0 0 0 37-15l5-4c6-4 8-5 11-3zm-383 4 6 8a243 243 0 0 0 17 43l4 9 2 4a1797 1797 0 0 1 28 44c0 2 8 13 10 15a192 192 0 0 1 14 17l6 7 10 12c3 3 3 3 0 8s-6 8-10 11c-7 4-8 4-13-2l-5-7-3-7-12-19-10-19a801 801 0 0 1-45-101l-2-7-2-9c-3-12-2-14 5-7zm562-3-1 8-3 12-6 20-4 10-3 9-3 7-5 10-3 7-2 4a330 330 0 0 0-13 26l-6 11-3 5-3 5-3 5-3 5-3 6-3 5-2 4c-3 3-7 11-8 15l-6 6-6 5-7-7c-6-7-10-13-10-16l4-6a417 417 0 0 0 89-143c2-6 8-14 11-14l2 1zm-476 13 2 10a216 216 0 0 0 15 51 203 203 0 0 0 13 32l4 11 2 3 1 3 2 3 1 5 3 6a119 119 0 0 1 11 16 1380 1380 0 0 1 19 31l12 16c7 9 9 11 15 14 10 4 11 5 18 5 6 0 6 0 10-5l8-4c2 0 3 1 3 3l-1 3-5 4c-6 6-9 6-19 6l-21-6c-4-2-6-5-5-7l-5-8a291 291 0 0 1-41-65c-2-2-4 0-6 5-8 16-14 26-16 24-2-1-1-2 2-8l3-7a254 254 0 0 1 7-19c1-5 0-9-4-19a297 297 0 0 1-21-53l-6-20-3-13c-2-6-2-11-2-14 0-4 2-5 4-3zm385 2v9a281 281 0 0 0-5 21l-2 9c-5 18-5 19-7 21l-2 8-4 9-3 8-6 13c-6 14-5 20 5 43 3 7 4 11 2 12l-5-5-8-16-3-10c-3-12-2-18 3-28l10-23 4-13a137 137 0 0 0 5-14l10-40c0-2 3-6 4-6l2 2zm-85 5a221 221 0 0 1-5 35l-1 7-5 21-1 6-2 7-9 35-5 15-5 17a311 311 0 0 1-15 36c-2 0-5-5-5-7l3-8 3-7 2-5 3-7a1056 1056 0 0 1 7-20l5-14a204 204 0 0 0 9-34l4-18 1-6 2-10 2-12 4-23c1-10 4-14 7-14l1 6zm-215 1 2 15a642 642 0 0 1 8 47 806 806 0 0 1 11 45l5 14 5 15 5 11 3 10 4 10c4 10 4 14 2 15-2 0-3-1-4-4l-2-8-9-25c-4-6-6-8-11-6l-10 2c-8 0-14 2-15 4 0 2 1 2 15 2s15 0 15 2c0 1-3 2-13 3l-12 2c-2 2 4 4 11 4s8 1 8 3c0 1-1 2-6 2l-6 1 3 4c2 1 3 2 3 5 1 3 1 3 5 4 5 0 9 1 9 2h-3l-5 1h-4a137 137 0 0 1-35-46 248 248 0 0 1-8-12 481 481 0 0 1-40-98l-2-6-1-5-1-5c-2-2-3-12-1-12l6 3c10 5 19 7 32 7l14-2a211 211 0 0 0 17-7c4-3 5-3 5 3zm103-4 1 92v90l-6 6-6 5h-11c-11 0-13 1-12 3 2 3 14 4 18 2l6-2 6-2c3-2 10-3 14 0 8 5 16 7 21 4l5-2 7-4c6-4 8-5 9-3s-2 7-7 10c-10 6-11 6-20 6-9 1-10 0-18-5-3-2-11-2-13 1l-2 1-3 1c-2 2-9 4-14 4-10 0-21-7-17-11 1-2 0-5-2-8-3-2-7-11-9-17a871 871 0 0 0-21-66l-2-7-5-22-3-17-3-16-1-8-1-11c-2-7-3-22-2-24l9 4c11 7 35 11 47 8l7-2c5-1 17-6 21-9 4-2 6-2 7-1zm-231 16 3 11 3 6 2 6 6 15c4 8 4 15 0 9a138 138 0 0 1-11-25l-1-3-1-5c-5-11-6-18-5-20l2-1 2 7zm15 3c2 6 3 10 7 16l1 5 2 3 1 4 2 4c1 3 2 7 0 7l-6-12a1056 1056 0 0 0-10-26c-2-3-1-12 1-9l2 8zm14-5 2 7 1 7 2 4 1 4 3 7c2 5 2 7-1 5l-5-11-1-4-7-21 2-1 3 3zm372 3-1 9a465 465 0 0 0-8 26c0 2-2 3-3 3 0-1 3-17 5-20l1-5 2-9 2-7c0-2 2 0 2 3zm12-1c-1 1-3-1-2-2h1l1 2zm-45 7a274 274 0 0 1-17 65c-2 0-1-8 4-20a169 169 0 0 0 6-25l3-13 2-11c1-4 3-1 2 4zm17-5c1 1-1 11-4 19l-1 8c0 4-1 6-3 6-3 0-2-1 1-14l2-11 1-6c2-3 3-4 4-2zm61 2-1 4-2 4-1 4-2 5-3 5a43 43 0 0 0-4 7l-2 4c-1 2-3 3-3 1l1-4a109 109 0 0 0 9-20l2-3c0-4 4-10 5-9l1 2zm-92 1c1 3-4 27-9 41l-2 5-1 1-1-5 5-20 4-20c0-4 3-5 4-2zm106 5-3 8-3 8-4 7c-2 6-4 9-6 9l-1-2 5-11 1-2 2-5 3-6 1-4 2-4c3-4 5-2 3 2zm-164 7c-2 19-5 33-7 33s-2-3 0-8l1-11 2-8 1-9c0-7 1-8 2-7l1 10zm17-4-2 12c-1 9-3 13-5 10v-4l2-7 2-9c2-10 2-10 3-8v6zm-50 2-2 15-1 11-4 24-1 9c-1 6-2 8-4 5v-7a821 821 0 0 0 11-65l1 8zm15 7c-1 12-2 26-4 33l-2 2c-2 0-2 0-2-5l2-13 1-8 2-10c1-8 3-15 4-14l-1 15zm-30 0c-1 5-4 2-2-4 0-2 0-2 2-1v5zm59 23-4 25c-2 4-3 6-4 4a92 92 0 0 1 7-31l1 2zm69-1-2 8-3 10c-1 8-6 20-8 20v-9l8-24c0-3 2-6 4-6l1 1zm64 7c-1 3-3 4-3 1 0-2 1-3 2-3l1 2zm15 1-1 3-2 3-2 1c-1 0-1-2 2-7 1-3 3-3 3 0zm-430 7 8 13c6 10 9 16 7 17l-3-2-5-8-2-4c-6-8-12-20-12-23l2 1 5 6zm361 0c0 4-4 11-6 11-1 0-1-1 2-10l3-5 1 4zm-45 3-2 8c-2 4-3 4-3 2-1-1 0-3 1-5l1-6 1-3c1-2 2 0 2 4zm-54 9-3 12c0 2-1 3-3 3s-3-2-1-6l3-10c2-10 3-12 5-10 1 1 1 3-1 11zm144-6-7 14c-3 3-5 4-5 2 0-4 8-17 10-17l2 1zm-160 4-2 9a106 106 0 0 1-6 26c-1 8-4 6-3-2l1-7 2-8a564 564 0 0 1 6-20c2 0 2 0 2 2zm-217 8c1 4 1 5-1 5s-7-8-6-11c1-1 1-1 3 1l4 5zm295 4-4 12-3 6c-2 6-4 8-6 8s-1-2 5-15l3-7c0-2 3-6 4-6l1 2zm-50 0c1 2 0 8-2 12l-1 5c0 3-3 6-4 4-1-1-1-3 3-16 1-6 3-8 4-5zm134 6c0 3-3 8-4 8-2-1-1-7 1-9 2-1 3-1 3 1zm-372 5c4 5 5 10 3 10-1 0-5-5-5-7l-1-3c-2-1-3-5-1-5l4 5zm299 0-4 11-2 3-4 9-3 6-4 8a49 49 0 0 1-6 11l-3 4-4 6c-1 4-2 6-4 6l-2-1 4-8 3-4a186 186 0 0 1 11-22l5-9 3-5 2-4 3-6 1-4c0-2 3-5 5-5 1 0 1 1-1 4zm-82 9c0 5-1 6-2 6v-9l2-2v5zm93-4-1 2h-2c-1-1 0-3 1-3l2 1zm39 1-4 3v-2c1-3 4-4 4-1zm-24 2-3 9c-4 9-4 9-12 20l-6 9a431 431 0 0 1-35 45c-5 4-14 6-22 6-7 0-10-1-17-8-8-7-2-9 9-2 5 3 10 4 18 1 5-1 12-8 20-18l5-6a330 330 0 0 0 39-58c2-2 4-1 4 2zm-139 7c0 1-2 2-2 0-1-1 0-3 1-2l1 2zm44 5-3 6v-6h3zm-16 3-1 6c-1 2-3 6-3 10a305 305 0 0 1-6 21l-5 14c0 3-3 6-5 5l1-3 3-8 2-9a228 228 0 0 0 7-22l1-5 2-6 2-5c0-2 2-1 2 2zm58 2-3 4-1 4c-1 3-4 5-5 3v-3c2-1 4-4 5-7l2-4c3-3 4-1 2 3zm-74 1-2 9-3 9-1 4-1-5 1-6 1-4c0-3 3-10 4-10l1 3zm29 6a242 242 0 0 1-6 20c-3 9-4 12-6 14l-1 5-2 3c-2 1-2 1-1-2l2-6 1-4 1-4 2-6c3-11 6-21 9-23 2-1 2-1 1 3zm101 4-1 3-2 2-3 4c-2 2-2 2-3 1s0-2 1-3c6-8 8-9 8-7zm19 12 4 5c1 2 4 7 7 9 6 6 7 8 5 11l-2 3-4 8-5 7-3 5-3 5-3 3-3 4c-2 5-5 9-8 12l-4 6-3 3-3 3a274 274 0 0 1-25 30l-10 12-31 29c-6 5-8 6-11 4-2-1-2 0 9-15a158 158 0 0 0 13-17 408 408 0 0 0 32-46l5-9 3-4 4-6 22-36 10-18-4 1c-3 2-9 8-14 15a817 817 0 0 1-27 42l-8 13a275 275 0 0 1-25 35l-18 27c-5 8-8 8-8 1l1-41c1-22 2-25 4-16 2 6 5 4 23-13l17-18 18-18 20-20c15-16 22-21 25-16zm-339 4 17 16 28 28a2727 2727 0 0 1 42 38c8 5 9 6 11 23v26l-2 14a589 589 0 0 0-32-44 483 483 0 0 1-33-51l-15-23c-10-16-14-20-17-18-1 1 0 6 2 8l1 2a322 322 0 0 0 28 46l2 4 3 5a705 705 0 0 1 21 31 483 483 0 0 0 34 46c2 1 3 5 1 6a525 525 0 0 1-108-120l-6-11c-3-6-3-8 3-14l9-10c2-3 5-5 6-5l5 3zm90 3c2 5 1 8-2 4-2-2-3-5-2-6 1-2 2-1 4 2zm-11 10c-1 2-4 2-5 0v-4c1-1 2-1 3 1l2 3zm136 30-4 14a295 295 0 0 0-15 34l-3 8c-5 11-7 15-9 15s-3-2-1-8a209 209 0 0 0 8-22l3-8 2-5 2-5a307 307 0 0 0 8-18l7-9 2 4zm-49 43c0 41-1 54-4 49-2-2-2-83-1-86s1-3 3-1c2 1 2 3 2 38zm-48-37 3 6a138 138 0 0 0 7 18l4 10c7 14 13 30 10 30-2 0-11-14-11-17l-1-5a349 349 0 0 1-17-43c1-2 4-1 5 1zm133 4-2 6-4 8c-2 4-8 7-8 3s11-22 13-20l1 3zm-167 6c6 7 8 10 8 13 0 6-4 2-13-10l-4-8h2c2 0 4 2 7 5zm101 1-1 6-2 7-2 7-3 9c-1 6-3 8-3 4 0-5 5-26 8-34 1-3 3-2 3 1zm-39 3 2 7 1 7 2 8v11c-1 0-3-5-5-16l-2-8v-11c1-1 2 0 2 2zm-38 14 6 11c0 2-9-6-12-11v-13l1 4c0 4 1 5 5 9zm116-3c0 2-6 13-8 13s-1-5 1-6l1-2c0-2 4-7 5-7l1 2zm1 29c-1 7-4 13-8 19-7 10-17 30-17 33 0 2-4 4-14 4l-10 1-5-4c-4-4-4-5-3-10l1-6c1-3 8-3 12 0 6 3 9 1 17-13 9-14 22-30 25-28 2 0 2 1 2 4zm-109 6a146 146 0 0 1 23 33c2 1 2 1 4-1 3-3 4-3 9-3 7 0 9 1 9 8 0 5 0 5-6 10-4 3-4 3-14 3-11 0-11 0-16-10l-12-21c-4-5-8-21-7-24s3-2 10 5zm110 25v13c1 6 1 7-1 9-2 3-3 3-9 3-8 0-10-1-8-4l2-5 7-14c4-8 5-10 7-10 1 0 2 1 2 8zm-115 2 8 18c1 5 0 6-5 6s-6 0-8-3c-3-3-3-3-2-15 0-14 1-15 3-12l4 6zm56 29c0 4-1 6-4 6-2 0-5-3-5-5s3-4 6-4c2 0 3 1 3 3zm-69 2c2 2 2 3 1 4-3 2-7 0-7-2l1-3c1-2 4-1 5 1zm138 0c1 3 0 5-2 5l-3-2c0-2 1-4 3-4l2 1zm-80 7c3 4 3 5 3 22l-1 20c-1 2-4 2-14 3-14 0-16 0-16-4 0-2 2-10 5-16l4-12 2-5c3-4 0-9-6-8-3 1-4 3-11 29l-5 13c-2 3-6 3-18 2-9 0-10 0-10-2-1-2 2-14 5-19v-5l2-5 2-5 4-7 5-4h37c8 0 9 0 12 3zm71-1c2 3 8 16 8 19l2 4 1 4 1 5c2 4 3 11 2 12-1 2-27 2-29 0l-6-12-1-6-3-10c-4-12-5-14-7-15-5-1-6 0-7 4l1 6a90 90 0 0 1 7 19c2 7 3 12 2 14l-13 1-14-1c-1-2-2-5-2-20v-18l3-4c3-5 3-5 32-4 19 0 21 0 23 2zm-129 59c1 7-4 11-7 5-1-3-1-7 1-9 1-2 2-2 3 0l3 4zm14-4c2 2 3 5 1 10 0 3-5 3-7-1-1-3-1-7 1-9 2-3 3-3 5 0zm17 0c2 1 2 2 2 5 0 5-1 7-4 7-4 0-5-2-5-7l2-6c2-1 2-1 5 1zm90 2c3 6-1 13-5 8-2-3-2-8 0-10 2-3 3-3 5 2zm17 1c1 4 0 8-3 8s-6-9-3-12c2-2 5 1 6 4zm16-2c2 3 3 6 0 8-2 3-3 2-5-1-2-4-2-6 0-8 2-3 3-3 5 1zm-184-1c3 4 2 12-2 12-2 0-4-2-4-6-1-2-1-3 1-5s3-3 5-1zm15 0v11c-2 4-8-3-6-8 0-3 1-3 4-4l2 1zm63 3c1 5 0 9-2 9-3 0-6-4-6-7 0-4 2-6 5-6 2 0 3 1 3 4zm40-3c2 3 1 12-2 12s-5-3-5-7 1-6 4-6l3 1zm16 0c2 1 1 11-1 12-2 0-5-4-5-7 0-6 2-7 6-5zm-34 1 1 4c0 6-7 8-12 3-5-4-3-8 5-8l6 1zm101 4c0 3 0 4-2 5-3 2-4 0-4-5s0-5 3-5c2 0 3 1 3 5zm-184 25c0 2 0 3-2 4-4 0-6-1-6-4 0-6 7-6 8 0zm14-2c4 3 1 7-5 6l-2-4c0-4 3-5 7-2zm15 0c4 3 1 6-4 5-2 0-3-1-3-3 0-4 4-5 7-2zm16-1 1 3c1 1 1 2-1 3-4 2-8-3-5-6h5zm34 1c2 5-3 8-6 4l-2-2c0-2 3-4 5-4l3 2zm16 0 2 3c0 2-4 3-6 2-2 0-3-1-3-3 0-4 4-5 7-2zm17 1c1 2-1 5-4 5-2-1-2-4-2-7 1-2 5-1 6 2zm17-1c2 4-1 7-5 5-3-1-4-5-2-6s6 0 7 1zm16 0v5h-4c-3-1-4-4-2-6s5-1 6 2zm-82 1c2 3 0 5-4 5s-5-1-5-4c1-3 2-3 5-3l4 2zm99 1c0 4-5 5-6 1-1-2 0-4 3-4 2 0 3 1 3 3zm-99 14c2 2 3 6 0 6-2 1-9-1-10-3 0-2 3-5 6-5l4 2zm49 0h7l6-1c3 0 7 3 6 5s-3 2-14 2c-12 0-13 0-14-2-1-1-1-2 1-4s3-2 8 0zm31 0 2 3c-1 3-3 4-6 2-3-1-4-4-1-6 2-1 2-1 5 1zm-129 1c4 1 6 4 4 5l-14 1c-12 0-12-1-13-3 0-3 3-4 9-3l8-1 3-1 3 2zm17-1h8c6-2 10 0 10 4v2l-13 1h-13l-1-3 2-4h7zm66 1c2 2 2 2 1 4-2 2-25 3-28 1v-4l8-1 9-1c3-2 8-1 10 1zm65 2c-1 3-5 4-8 1-3-2-2-3 4-3 4 0 4 0 4 2zm-50 17c-1 2-5 4-6 2-2-2-2-5 0-7 1-2 1-2 4 0 2 2 2 3 2 5zm-111-3c3 3 3 7-1 8-5 0-7-3-5-8 1-4 3-4 6 0zm61-1c3 2 2 8-2 8-2 0-5-3-5-5s3-5 5-5l2 2zm15-1c3 2 3 6 2 7-2 2-4 2-7 0-2-2-2-2 0-5s3-3 5-2zm50 3c0 5-4 7-6 3s0-7 3-7c2 0 3 1 3 4zm15-3 1 4c-1 3-5 4-6 1-2-5 2-8 5-5zm-95 2c2 3 2 6-1 6-3 2-6-1-6-4 0-4 4-5 7-2zm48 0c1 1 1 2-1 4-1 2-2 2-4 1s-3-5-1-6c1-2 5-1 6 1zm-78 1 1 4c-1 2-6 2-8 0-2-1-2-1-1-3 1-4 6-4 8-1zm15 0c4 4 0 8-5 6-2-1-3-3-2-6 0-3 5-3 7 0zm126 0c0 2-2 4-3 4l-2-4c0-2 1-2 3-2 1 0 2 0 2 2zm-48 16-2 5c-2 0-5-3-4-5 0-3 5-3 6 0zm14-1c2 0 3 3 1 5-3 2-6-2-4-5h3zm17 1v3c-2 3-6 0-5-3 1-2 3-2 5 0zm15 0v2c-1 2-4 0-4-2s2-3 4-1zm-140 0c3 0 2 3 0 5h-3c-2-4-1-7 3-5zm16 0c2 1 2 2 1 4-3 3-4 3-5-1v-3h4zm14 0c3 0 3 4 0 6h-3c-3-5-1-8 3-6zm18 1c0 2-2 4-4 4s-4-3-2-5c1-2 5-1 6 1zm15 1c0 3-4 4-6 1-1-2 0-4 3-4 2 0 3 1 3 3zm15 0c0 2-3 3-5 1-1-2 0-4 3-4 2 0 2 1 2 3zm-90-1-4 4-2-3c0-2 0-2 2-2l4 1z"/><path fill="#8beba8" d="M386 79c-1 2 0 3 2 3 3 0 4-2 2-4s-4-1-4 1zm-9 6 3 4h3c1-3-2-7-4-7s-2 0-2 3zm-8 4c-1 2 2 8 5 8 2 0 3-1 1-5-2-3-4-4-6-3zm-8 6-1 2c0 2 5 9 7 9s1-5-2-9c-3-3-3-3-4-2zm-8 8c0 4 3 10 6 10s2-5-2-10c-3-3-4-3-4 0zm-11 8c0 2 4 6 5 4v-4c-1-2-4-3-5 0zm-11 14c-1 3 1 5 3 5s3-1 3-3-1-3-3-3l-3 1zm14 1c0 2 1 3 3 3s2-1 2-2c0-2 0-3-2-3l-3 2zm-29 10c-3 1 0 6 4 6 2-1 3-4 0-6h-4zm-7 12-1 3c0 3 0 3 3 3 2-1 3-1 3-4 0-2-1-3-2-3l-3 1zm-11 25c-2 1-2 2-1 3 1 2 5 1 5-1 0-3-2-3-4-2zm12 12v5c2 2 6 0 7-3 1-5-4-7-7-2zm-14 3c-2 2-1 5 2 5s5-3 4-5-4-3-6-1zm32 20v3c2 4 6 1 5-3-1-2-3-3-5 0zm-50 26c0 4 0 7 2 8 3 0 4-2 4-6s0-4-2-4l-4 2zm16 2c-2 4-2 6-1 9l1 2 3-2c3-3 3-9-1-10l-2 1zm28 5c0 2 1 4 4 4 2-1 2-4 1-6-2-2-4-1-5 2zm-14 3-1 6c0 4 1 5 2 5 4 0 6-7 4-11-2-2-4-3-5 0zm13 10c0 2 0 2 2 2s3-1 3-2c0-2-1-3-3-3s-2 0-2 2zm-30 11c-2 1-1 3 2 3l2-2c0-2-2-2-4-1zm19 2c-4 2-2 3 5 4 6 0 7 0 7-2l-2-2h-10zm4 12c-8 1-11 2-7 4 4 1 16 0 17-2 0-2-1-3-10-2zm-1 12c-8 1-9 2-7 4h8c10 0 11-1 11-3-1-3-4-3-12-1zm-5 12c-6 1-8 2-8 3 0 2 22 2 24-1s-1-4-16-2zm0 11c-7 1-10 2-9 4 2 3 26-1 26-4h-17zm-17 1-1 2c0 1 1 2 3 2l2-2c0-1-3-3-4-2zm-21 10c-4 2 1 5 5 3 3 0 2-3 0-3h-5zm44 0c-9 1-15 3-14 5s16 1 21-1c4-1 6-4 3-4h-10zm-45 11c-3 2-2 4 1 4l3-1c0-3-2-4-4-3zm39 1c-13 2-15 2-15 4 0 3 2 3 12 2 14-1 21-3 21-5s-1-2-18-1zm11 10-9 2-20 4c-1 2 4 2 19 0 15-1 20-3 20-6 0-1-6-2-10 0zm203-246-1 3c0 2 2 3 4 0 2-2-1-5-3-3zm15 9 2 1 1-1-1-1-2 1zm-8 2c-1 1-2 1-1 2 0 2 4 2 6 1 2-2-2-4-5-3zm9 9c-2 1-3 5-1 5 3 0 5-3 5-5h-4zm4 14c-1 2 1 3 5 1 2 0 3-2 3-2-1-2-7-1-8 1zm26 2-4 2c-3 0-4 1-4 3 0 4 2 4 6 1 6-3 9-5 8-6h-6zm-24 6c-2 1-1 3 1 3l2-2c0-2-2-2-3-1zm30 6-9 4c-4 1-5 2-5 3 0 3 3 3 8 0l9-4c5-1 6-3 5-4-1-2-4-1-9 1zm10 10-10 4c-7 3-9 6-4 6l4-1 4-2 10-5c1-2 0-4-1-4l-4 1zm0 14-5 2-4 2c0 2 0 2 3 2l4-2 4-2 3-2c0-2-4-1-5 0zm12 6-3 2-3 3c0 2 0 2 4 0s6-4 4-5h-2zm-17 20c-3 2-4 5-1 5s9-3 9-4c0-2-5-2-8-1zm25 7c-2 2-10 5-16 5-5 1-7 1-8 3l-2 2h3l6-1c1-1 3-2 6-1l5-1 3-2c3 0 9-4 8-5h-5zm-36 9v2c2 0 6 0 6-2h-6zm42 1-8 2c-7 3-12 6-12 8 0 1 4 1 10-2l8-3 7-4c1-2 1-2-1-2l-5 1zm5 10a199 199 0 0 0-16 6l-7 4c1 3 6 2 16-2l11-5 2-2c0-2-3-3-6-1zm3 12c-5 1-21 7-22 9-3 2 0 3 5 2l8-3c7-2 14-6 14-7-1-2-3-2-5-1zm1 17-6 3-5 1-3 1-4 2c-3 0-4 1-5 2 0 2 8 1 10 0l4-2 5-1 7-2c3 0 7-4 5-5s-2-1-8 1zm-33 11v1c2 1 8 0 8-1h-8zm35 1-16 4-4 1-5 2c-2 0-3 1-3 2l4 1 6-1 7-2c12-2 18-5 18-7 1-2-2-2-7 0zm4 10-7 2-7 3-7 1-6 1-9 2c-10 1-9 2 0 3a86 86 0 0 0 32-6l7-2c4-2 4-2 2-4l-2-1-4 1zm0 11-19 5c-4 2-18 4-27 4l-4 2c0 4 20 2 39-3 17-4 19-6 18-8h-7zm-1 11a193 193 0 0 1-41 8c-14 0-17 2-8 4s36-2 48-6c5-2 9-5 9-6h-8zm-3 13c-10 3-32 6-42 7h-9c-2 0-1 3 2 4a129 129 0 0 0 51-7c5-1 9-3 9-5 0-1-6-1-12 1zm-2 11c-12 3-19 4-34 5l-16 2v3l11 1c25-2 53-8 52-11-1-2-5-2-13 0zm10 8a173 173 0 0 1-51 9l-11 1 4 3a129 129 0 0 0 57-7c3 0 4-3 3-5l-2-1zm-6 14-32 5h-17c-9-1-11 0-6 3 3 2 5 2 16 2l19-1c26-6 27-6 26-9-1-2-1-2-6 0zm-18 14c-2 1 0 2 4 2s6-1 5-2h-9zM425 82c-1 0-1 3 1 3l2-1c0-1-1-3-3-2zm-10 9c-2 1-2 2 0 4s3 3 4 2v-6h-4zm-10 11-1 2c0 2 4 5 6 5 2-2 1-8-2-8l-3 1zm-9 11c-2 1-1 4 1 5 3 2 4 2 4-2 0-2-4-5-5-3zm8 8v5c2 1 3 0 3-3 0-2-1-3-3-2zm-15 5c0 3 3 6 6 6s2-2-1-5c-3-4-5-4-5-1zm24 11c0 4 3 4 4 1 0-3 0-5-3-5l-1 4zm-13 2c-2 4-2 5-1 6s1 1 2-2c0-2 1-3 2-3 1-1 2-4 0-5l-3 4zm-14-2c-1 1-1 2 1 4 3 2 5 3 5 0s-4-6-6-4zm-6 9c-1 1 1 5 4 7 5 4 8 1 3-5-3-3-6-4-7-2zm-6 12 3 6c8 7 11 2 4-5-5-5-7-5-7-1zm54 4v7c2 2 4-1 4-5 0-3 0-4-2-4l-2 2zm-59 8c0 2 3 8 5 8 2 1 5 0 5-2l-3-4c-2-3-6-4-7-2zm-3 17-1 6c1 4 1 6 4 8 3 4 7 5 7 3l-3-5c-2-3-2-4-2-7 0-5-2-8-5-5zm19 22c-1 3 0 7 2 7s4-6 3-8c-2-3-4-2-5 1zm16 2v14c2 2 4-1 5-8 1-6 1-10-3-11-1 0-2 1-2 5zm-40-2c-2 1-1 4 2 5h4c1-1 1-2-1-4-1-2-4-3-5-1zm54 1c-1 7 3 11 6 5 2-5 1-7-2-7l-4 2zm-45 7c-1 1 1 6 3 6s3-5 1-6h-4zm59 1c-1 3-1 13 1 14l2-2c3-2 2-13 0-14l-3 2zm-14 6c-1 2-1 5 1 7s3 0 3-4-1-5-4-3zm-51 22c-3 3-1 4 2 4 2 0 3-1 3-3 0-3-3-4-5-1zm21 7v3c2 1 4 0 4-2s-2-3-4-1zm-14 10c-3 2 0 6 3 5s2-5 0-6l-3 1zm47 2c0 3 1 5 4 4 2-1 1-6-1-7l-3 3zm-11 6c-1 3 1 6 3 6 3-1 4-5 1-7-2-1-4-1-4 1zm-11 1c-2 1-1 5 1 6 3 2 4-1 1-5l-2-1zm-15 8c-2 1-1 5 1 6 2 0 4-2 4-4 0-3-4-4-5-2zm23 5c-2 2-2 2-1 4l2 2c2 0 4-4 2-6h-3zm14 10c0 2 3 4 4 2 2-3 1-5-1-5s-3 1-3 3zm-39 6v3c3 2 7-1 6-4s-5-2-6 1zm51 3c-3 2-1 5 2 5l3-2c1-4-2-5-5-3zm-33 4-6 3c-5 3-5 5-1 5s14-7 14-8c-1-2-4-2-7 0zm-29 5c-2 2-2 2-1 3 4 1 7-2 4-4-1-1-2 0-3 1zm50 0c-1 2 1 4 3 4 1 0 2-2 1-4 0-2-4-2-4 0zm-29 11c-6 2-8 3-6 6 2 1 2 1 7-1 14-5 14-10-1-5zm-32 2c0 2 3 3 10 3 4 0 8-2 6-3l-8-1-8 1zm74 1c0 3 2 2 3 0l-1-2-2 2zm-33 7-8 3c-3 0-11 4-12 6 0 1 9 0 13-2l5-1 2-1 4-1c5-2 8-7 4-7l-8 3zm16 5-8 4c-4 1-9 3-13 6l-3 2h2c11 0 31-10 30-14-1-3-2-2-8 2zm16 6c-3 3-4 6-1 7s8-6 6-9c-2-2-2-1-5 2zm-70 0 2 1 2-1-2-1c-2 0-3 0-2 1zm52 8c-3 1-5 3-5 4 0 3 2 3 6 2 5-2 8-4 7-7-1-2-3-1-8 1zm-35 1c-2 1-1 3 1 3s3-2 3-4l-4 1zm89-208c-5 7-5 7 4 16 4 4 6 6 7 5 2 0 11-13 11-15l-2-4-6-5c-7-6-9-5-14 3zm21 18-5 8c0 2 12 14 14 14 1 0 11-11 12-14 1-2-11-15-14-15l-7 7zm-15 20-5 8 5 8c3 4 5 5 7 5l3-1 5-6c5-6 5-8-1-15s-8-7-14 1zm17 18-6 7c0 4 9 14 12 14 2 0 14-12 14-15s-8-13-11-13c-2 0-5 2-9 7zm21 15c-10 11-12 16-8 17l1 2 1 2 3 4c5 7 7 7 15-1 8-10 9-10 6-14-3-5-11-13-13-13l-5 3zm-21 24c-4 3-7 7-7 8l3 6 3 4c0 2 5 9 7 9l8-7c8-9 8-11 2-19l-5-7c0-3-5 0-11 6zm-20 19-7 9 8 15 3 6 1 1c2 0 13-11 16-16l1-3-3-5-6-10-4-4-9 7zm37 6-7 9 4 5 5 9c4 7 6 6 14-4l5-9c0-3-11-18-13-18l-8 8zm-19 22-7 8c0 3 10 19 12 20 2 0 16-15 16-18 0-2-11-18-13-18l-8 8zm-21 22-7 8 2 5 5 8c4 8 5 8 14-2l9-8-2-4c-5-9-10-15-12-15-1 0-5 3-9 8zm39 3-8 8 5 8c9 13 8 13 17 3 5-4 8-9 8-10 0-2-12-17-14-18l-8 9zm-224 78v2c2 2 7 1 7-1s-5-2-7-1zm43 5-16 1-14 1-5 2-4 1c-3 1 29 1 40-1 7 0 10-1 10-4h-11zm3 10-6 2-19 1c-10 0-17 1-17 2 0 2 6 2 22 2 18-1 31-4 31-6s-4-2-11-1zm-5 12-34 4c0 1 7 2 17 1 20 0 34-2 34-4s-3-2-17-1zm14 9-10 1c-3 2-11 2-20 2-13 0-17 1-15 3h20c23 0 33-2 30-6l-2-1-3 1zm-7 12a922 922 0 0 1-35 3c-2 2 2 3 18 3 19 0 32-2 32-5-1-2-5-2-15-1zm4 10-19 2c-12 0-15 1-15 2 0 2 34 1 42-1l6-3h-14zm-3 11a828 828 0 0 1-26 2v3c2 3 44 0 44-4 0-2-7-2-18-1zm7 10-19 2c-8 0-10 1-10 2l2 1c8 1 22 0 31-2 9-1 11-2 11-3-1-2-4-2-15 0zm1 9-13 2c-7 0-10 1-11 2-1 3 2 3 12 2a338 338 0 0 0 27-5c0-2-1-2-6-2l-9 1zm0 10-13 2c-3 0-4 1-4 2 0 2 1 2 20 1 12-1 16-2 15-5-1-2-6-2-18 0zm9 9-13 1c-10 0-11 0-10 3 1 2 2 2 11 2l13-2c4 0 6 1 2 2l-5 2-9 2-6 2c0 1 4 3 5 2l3-1 9-2 9-1c7 0 8-5 2-7-3 0-3 0-2-2 1 0 2-1 1-2 0-1-4-1-10 1zm78-107a608 608 0 0 1-23 3l-9 1-1 3c2 4 24 1 38-3 7-3 3-6-5-4zm-49 3c-7 1-5 2 3 3l7-1-2-2h-8zm43 10-10 2c-7 0-7 1-8 3 0 2-1 2 10 1 12-2 23-4 23-6h-15zm-36 2c-3 0-4 2-1 3 3 2 8 1 9-1v-1c-1-1-6-2-8-1zm-14 1c1 2 4 2 4 0l-2-1-2 1zm61 8c-1 1-2 2-1 3 2 0 6-3 6-4 0-3-3-2-5 1zm-16 2-12 1c-5 0-6 0-6 2s1 2 7 2c10 0 20-2 21-3 2-4-1-5-10-2zm-42 1c-2 2 1 3 8 3 7 1 11 0 9-2l-17-1zm57 8-7 1-8 1-11 2c-6 0-8 1-8 2l2 2c3 0 17-1 24-3l9-1c2 0 6-2 6-4h-7zm-52 4c0 1 3 3 6 3s4-2 2-4-8-1-8 0zm50 7-13 2-15 2c-2 2-3 2-5 0l-12-1h-9l2 2c2 2 3 2 17 3 22 0 44-4 44-8h-9zm0 11-10 2-24 1c-17 0-21 1-18 3h24c21 1 24 0 30-1l7-4c0-2-2-2-9-1zm1 11a1771 1771 0 0 0-21 7c0 2-1 2-13 3-14 0-17 2-9 3 6 2 23-1 28-3l8-3 9-2c4-1 5-2 5-3-1-3-2-3-7-2z"/><path fill="#8beba8" d="M387 463v1c3 1 13 2 16 1 2 0 2 0 1-2-3-1-17-2-17 0zm40 10c-9 3-21 5-33 6l-12 1c0 2 3 3 10 3l19-2c15-1 25-4 25-8l-3-2-6 2zm-6 12-23 3c-11 0-13 1-14 2 0 2 6 3 14 3 21-3 36-5 38-7l-1-2c-2-1-1-1-14 1zm4 10c-9 2-22 3-30 3-7 0-8 0-8 2l14 2 19-1 9-2c3 0 7-4 6-5 0-1-3-1-10 1zm-5 11-20 1c-9 0-10 1-11 2 0 2 1 2 16 2 17 0 30-2 30-5 0-2-5-2-15-1zm2 10-18 1-12 1c0 2 2 3 11 4 10 0 24-1 29-4 8-4 2-5-10-2zm4 9-18 1-13 1c0 3 4 3 15 3 15 0 23-1 24-3v-3c-2-1-3-1-8 1zm0 9-15 1c-19 1-17 2 4 3 16 0 19 0 19-4h-8zm-8 9c-18 1-18 1-15 4s10 3 23 1c7-1 8-2 8-3l-1-2h-15zm5 9c-14 1-18 1-18 3l14 1c11 0 15-1 13-4l-3-1-7 1zM326 86v2c2 2 2 2 3 1l1-3h-4zm-24 16v4c1 3 5 3 6-1 0-2-5-6-6-4zm-9 7c-2 1 0 8 2 9 3 0 4-3 3-6-2-3-3-4-5-3zm-11 8c-1 3 2 7 4 7s3-4 1-7c-1-3-5-3-5 0zm-10 10c0 3 3 6 5 5s1-4-1-5c-2-3-4-2-4 0zm-9 11c0 1 4 6 6 6 1 0 0-5-2-7-2-1-3-1-4 1zm-5 11c-1 1 0 4 2 5s2 1 3-1c1-3-4-7-5-4zm-11 8c-1 1 0 3 2 3l2-2c-1-2-4-3-5-1zm6 10c-1 0 1 5 4 7 1 1 2 2 3 1s1-2-1-5-5-5-6-3zm-5 11c0 3 0 5 2 7 4 4 7 1 3-5-2-3-5-4-5-2zm-5 14c0 3 4 7 6 7 3 0 2-3-1-5-3-3-5-4-5-2zm-4 14c0 2 4 6 5 6 2 0 2-3 0-5-1-2-5-3-5-1zm-25 3c-1 2-1 5 1 6h4v-4c-2-3-3-3-5-2zm17 4c-2 2 1 6 4 6 2 0 1-4-1-5-2-2-2-2-3-1zm-20 11c-1 1 1 5 2 5l2-3c0-2 0-3-2-3l-2 1zm17 0c-3 2 1 9 5 8 1-1 1-4-2-7-1-2-2-2-3-1zm-24 16c0 2 1 2 3 2 1 0 2 0 2-2s0-2-2-2c-3 0-3 0-3 2zm20 1 6 5 9 4c1-1 1-1-1-4l-3-2-5-3c-4-3-6-3-6 0zm-5 10c-1 2 2 4 9 8 7 3 10 4 10 2s-3-4-10-7l-6-3h-4zm-19 12 2 3c2 3 4 1 4-2-1-2-6-3-6-1zm18 0c-1 1 8 7 13 9h7c0-1-2-4-4-4l-11-5h-5zm0 13c0 1 2 3 9 5s11 3 11 1c0-1-2-3-6-4l-9-2h-5zm-10 7c-3 2 7 6 19 9a404 404 0 0 1 9 0c0-2-2-3-6-3l-6-1-3-2-4-1c-3-2-9-3-9-2zm-11 6c-1 1-1 2 1 3a75 75 0 0 0 29 11l5 2 4-1-1-2a365 365 0 0 1-38-13zm-1 13 12 7 18 5c9 2 12 2 12 1 0-2-10-5-13-5l-7-2c-20-9-22-9-22-6zm0 9c-2 2 1 4 7 6a203 203 0 0 1 14 5l7 2a2582 2582 0 0 0 14 3c1-2-3-5-6-5l-6-1a460 460 0 0 0-31-10zm2 11c-3 2 1 4 17 10 16 5 24 7 24 4l-6-3-30-10c-4-2-4-2-5-1zm0 12c0 2 8 6 22 10l11 4h8c0-2-3-4-12-6l-22-8c-6-2-7-2-7 0zm3 10c-1 1 3 5 10 8 6 2 18 5 19 4s-2-4-4-4l-16-6-9-2zm-18 248c-1 2 0 3 2 3s3-1 2-3c0-1-4-2-4 0zm11 1 1 2c1 2 4 0 4-2-1-2-4-2-5 0zm455 90c-1 1 2 3 3 2 2-1 1-3-1-3l-2 1zm5 17 2 2c2 0 2 0 2-2l-2-2c-2 0-2 0-2 2zm-10 1 1 2c2 0 2 0 2-2-1-2-3-2-3 0zm-5 13c-1 1 0 3 1 3l1-2c0-2-1-3-2-1zm17 2c0 2 1 2 3 2l2-1-3-4c-2 0-2 0-2 3zm-40 13c1 2 4 3 4 0l-2-2c-2 0-2 1-2 2zm-341 63c0 3 1 4 4 4 2 0 2 0 2-2-1-3-5-4-6-2zm38 2c-1 1 1 2 2 1l-1-2-1 1zm-16 1-1 2c0 2 1 2 3 2l2-1c0-2-3-4-4-3zm17 13c-1 2 0 4 2 4 1 0 2-3 0-4h-2zm-39 1c-1 2 2 4 3 2 1-1 1-3-1-3l-2 1zm36 16 1 1c2-1 2-3 1-3l-2 2z"/></svg>
