<?xml version="1.0" standalone="no"?>
<!DOCTYPE svg PUBLIC "-//W3C//DTD SVG 20010904//EN"
 "http://www.w3.org/TR/2001/REC-SVG-20010904/DTD/svg10.dtd">
<svg version="1.0" xmlns="http://www.w3.org/2000/svg"
 width="1080.000000pt" height="1080.000000pt" viewBox="0 0 1080.000000 1080.000000"
 preserveAspectRatio="xMidYMid meet">
<metadata>
Created by potrace 1.14, written by Peter Selinger 2001-2017
</metadata>
<g transform="translate(0.000000,1080.000000) scale(0.100000,-0.100000)"
fill="#000000" stroke="none">
<path d="M5140 10763 c-755 -36 -1517 -242 -2195 -592 -506 -261 -920 -565
-1330 -976 -417 -416 -727 -843 -990 -1360 -477 -940 -668 -1995 -549 -3030
121 -1061 546 -2039 1242 -2865 130 -153 437 -462 592 -594 457 -391 977 -702
1535 -921 497 -195 956 -302 1530 -357 192 -18 721 -15 925 6 722 73 1352 258
1965 575 510 264 919 564 1330 976 206 205 333 350 491 560 1068 1416 1368
3270 799 4943 -217 641 -548 1224 -993 1752 -130 153 -437 462 -592 594 -1044
892 -2395 1355 -3760 1289z m728 -772 c773 -118 1432 -533 1862 -1171 210
-312 357 -695 416 -1085 26 -169 26 -562 1 -725 -75 -480 -255 -893 -550
-1263 -81 -102 -250 -278 -340 -354 l-47 -41 -290 -1470 -290 -1470 0 -556 0
-556 -1210 0 -1210 0 0 324 c0 178 -4 326 -8 328 -7 3 -612 3451 -612 3487 0
7 -46 61 -102 120 -386 404 -630 901 -714 1456 -26 168 -26 561 -1 725 89 573
343 1078 746 1481 218 217 433 370 716 509 308 152 628 245 960 279 149 16
520 6 673 -18z"/>
<path d="M3814 5244 c10 -50 416 -2385 416 -2395 0 -5 453 -9 1145 -9 l1145 0
5 23 c21 89 455 2310 452 2313 -2 2 -37 -17 -78 -43 -133 -83 -387 -200 -559
-257 -176 -58 -325 -94 -510 -123 -163 -25 -576 -25 -745 0 -427 63 -803 204
-1135 425 -63 43 -121 81 -129 86 -10 6 -12 2 -7 -20z"/>
</g>
</svg>
